<svg width="103" height="136" viewBox="0 0 103 136" fill="none" xmlns="http://www.w3.org/2000/svg">
<path fill-rule="evenodd" clip-rule="evenodd" d="M3.51172 0V10.5518L4.68164 11.7246C4.69667 11.7397 5.85966 12.9081 6.95605 14.7314C7.48556 15.4715 7.99974 16.19 8.51367 16.9082C9.10466 17.7401 9.67835 18.5481 10.252 19.3555C10.8951 20.2486 11.5193 21.1155 12.1436 21.9824C14.0964 24.7233 16.0497 27.4642 18.0107 30.1992C19.1889 31.8409 20.3665 33.4833 21.542 35.127C22.0602 35.8525 22.5635 36.5565 23.0664 37.2607C24.9764 39.9344 26.8825 42.6109 28.7861 45.2891C30.2311 47.3227 31.682 49.3512 33.1475 51.3701C34.1762 52.7866 35.2001 54.207 36.2188 55.6309C36.7133 56.3233 37.1938 56.9959 37.6738 57.668C40.3264 61.2023 40.327 61.2023 42.1367 64.4824C40.8829 68.2502 38.9873 70.99 36.7012 74.2051C35.4691 75.9196 34.2406 77.6369 33.0156 79.3564C32.3485 80.2942 31.7012 81.205 31.0537 82.1152C28.9647 85.0469 26.8843 87.9837 24.8223 90.9346C23.7579 92.4661 23.7571 92.4656 22.7139 93.9668C21.3111 95.9845 19.9093 98.0029 18.5078 100.021C15.3399 104.606 12.2212 109.224 8.78613 113.613C8.23176 114.296 7.69335 114.958 7.15527 115.62C6.1651 116.844 5.20421 118.032 4.24316 119.22C0.000267029 124.188 0 124.188 0 136H103V98.4824H90.125C88.9448 103.211 88.336 107.87 87.7842 112.698C87.3329 116.688 87.2556 120.645 85.4434 124.275H25.75C31.1178 116.509 36.4231 108.768 41.9678 101.142C47.0655 94.1467 52.1108 87.1173 57.0371 80C57.6167 79.1587 58.1796 78.3419 58.7422 77.5254C59.7866 76.0166 60.8282 74.506 61.8652 72.9922C62.7186 71.6937 63.5467 70.4332 64.375 69.1729C66.117 66.6723 66.1169 66.6715 66.7158 64.4824C64.9923 61.2854 63.0083 58.331 60.9717 55.3252C56.692 49.1949 52.4324 43.0516 48.2354 36.8643C47.7394 36.1319 47.2587 35.4208 46.7773 34.71C45.8916 33.4021 45.0055 32.0942 44.1201 30.7861C43.0227 29.1633 41.9577 27.5878 40.8926 26.0127C37.3359 20.756 33.8837 15.6539 30.4316 10.5518C56.4391 11.1438 56.4393 11.1443 81.9316 11.7246C83.2435 14.017 83.2442 14.0169 83.3906 16.6152C83.8171 22.3693 84.4777 27.4077 86.6133 32.8271H98.3184V0H3.51172Z" fill="currentColor"/>
</svg>
