<svg width="192" height="192" viewBox="0 0 192 192" fill="none" xmlns="http://www.w3.org/2000/svg">
<path d="M192 192H0V0H192V192ZM49.5117 28V38.5518L50.6816 39.7246C50.6967 39.7397 51.8597 40.9081 52.9561 42.7314C53.4856 43.4715 53.9997 44.19 54.5137 44.9082C55.1047 45.7401 55.6783 46.5481 56.252 47.3555C56.8951 48.2486 57.5193 49.1155 58.1436 49.9824C60.0964 52.7233 62.0497 55.4642 64.0107 58.1992C65.1889 59.8409 66.3665 61.4833 67.542 63.127C68.0602 63.8525 68.5635 64.5565 69.0664 65.2607C70.9764 67.9344 72.8825 70.6109 74.7861 73.2891C76.2311 75.3227 77.682 77.3512 79.1475 79.3701C80.1762 80.7866 81.2001 82.207 82.2188 83.6309C82.7133 84.3233 83.1938 84.9959 83.6738 85.668C86.3264 89.2023 86.327 89.2023 88.1367 92.4824C86.8829 96.2502 84.9873 98.99 82.7012 102.205C81.4691 103.92 80.2406 105.637 79.0156 107.356C78.3485 108.294 77.7012 109.205 77.0537 110.115C74.9647 113.047 72.8843 115.984 70.8223 118.935C69.7579 120.466 69.7571 120.466 68.7139 121.967C67.3111 123.984 65.9093 126.003 64.5078 128.021C61.3399 132.606 58.2212 137.224 54.7861 141.613C54.2318 142.296 53.6933 142.958 53.1553 143.62C52.1651 144.844 51.2042 146.032 50.2432 147.22C46.0003 152.188 46 152.188 46 164H149V126.482H136.125C134.945 131.211 134.336 135.87 133.784 140.698C133.333 144.688 133.256 148.645 131.443 152.275H71.75C77.1178 144.509 82.4231 136.768 87.9678 129.142C93.0655 122.147 98.1108 115.117 103.037 108C103.617 107.159 104.18 106.342 104.742 105.525C105.787 104.017 106.828 102.506 107.865 100.992C108.719 99.6937 109.547 98.4332 110.375 97.1729C112.117 94.6723 112.117 94.6715 112.716 92.4824C110.992 89.2854 109.008 86.331 106.972 83.3252C102.692 77.1949 98.4324 71.0516 94.2354 64.8643C93.7394 64.1319 93.2587 63.4208 92.7773 62.71C91.8916 61.4021 91.0055 60.0942 90.1201 58.7861C89.0227 57.1633 87.9577 55.5878 86.8926 54.0127C83.3359 48.756 79.8837 43.6539 76.4316 38.5518C102.439 39.1438 102.439 39.1443 127.932 39.7246C129.244 42.017 129.244 42.0169 129.391 44.6152C129.817 50.3693 130.478 55.4077 132.613 60.8271H144.318V28H49.5117Z" fill="currentColor"/>
</svg>
