<svg width="1000" height="1000" viewBox="0 0 1000 1000" fill="none" xmlns="http://www.w3.org/2000/svg">
<g clip-path="url(#clip0_1_66)">
<path d="M500 1000C776.142 1000 1000 776.142 1000 500C1000 223.858 776.142 0 500 0C223.858 0 0 223.858 0 500C0 776.142 223.858 1000 500 1000Z" fill="#E84142"/>
<path d="M676.4 513C693.8 483 721.6 483 739 513L846.8 702.4C864.2 732.4 850 756.8 815.4 756.8H598C563.8 756.8 549.6 732.4 566.6 702.4L676.4 513ZM467.8 148.4C485.2 118.4 512.6 118.4 530 148.4L554 191.8L610.6 291.4C624.4 319.8 624.4 353.2 610.6 381.6L420.4 711.2C403 738 374.4 755 342.4 756.8H184.6C150 756.8 135.8 732.8 153.2 702.4L467.8 148.4Z" fill="white"/>
</g>
<defs>
<clipPath id="clip0_1_66">
<rect width="1000" height="1000" fill="white"/>
</clipPath>
</defs>
</svg>
