<svg width="1000" height="1000" viewBox="0 0 1000 1000" fill="none" xmlns="http://www.w3.org/2000/svg">
<g clip-path="url(#clip0_1_62)">
<path d="M500 1000C776.142 1000 1000 776.142 1000 500C1000 223.858 776.142 0 500 0C223.858 0 0 223.858 0 500C0 776.142 223.858 1000 500 1000Z" fill="url(#paint0_linear_1_62)"/>
<path d="M797.4 418.4H738C704.8 328.4 618.4 264.2 516.8 264.2H310.6V418.4H245V472.4H310.6V530.2H245V584.2H310.6V735.8H516.8C617.4 735.8 703.2 672.8 737 584.2H797.4V530.2H750.6C751.8 520.4 752.6 510.2 752.6 500C752.6 490.6 752 481.4 751 472.4H797.6V418.4H797.4ZM364.6 315.8H514.6C586.4 315.8 648.2 357.8 677.2 418.4H364.6V315.8ZM514.6 684.2H364.6V584.2H676C646.6 643.4 585.4 684.2 514.6 684.2ZM694.8 496V504.2C694.8 513 694.2 521.8 693 530.2H364.6V472.4H693.2C694.2 480.2 694.8 488 694.8 496Z" fill="white"/>
</g>
<defs>
<linearGradient id="paint0_linear_1_62" x1="146.447" y1="146.447" x2="853.553" y2="853.553" gradientUnits="userSpaceOnUse">
<stop stop-color="#F9AF1A"/>
<stop offset="1" stop-color="#FBC349"/>
</linearGradient>
<clipPath id="clip0_1_62">
<rect width="1000" height="1000" fill="white"/>
</clipPath>
</defs>
</svg>
