<svg width="1000" height="1000" viewBox="0 0 1000 1000" fill="none" xmlns="http://www.w3.org/2000/svg">
<circle cx="500" cy="500" r="500" fill="#8247E5"/>
<path d="M656.402 396.539C645.054 389.873 630.252 389.873 617.67 396.539L528.857 448.02L468.539 481.599L379.727 533.079C368.378 539.746 353.576 539.746 340.994 533.079L270.438 492.833C259.09 486.167 251.072 473.822 251.072 460.365V380.984C251.072 367.528 257.856 355.306 270.438 348.516L339.884 309.381C351.232 302.714 366.035 302.714 378.616 309.381L448.063 348.516C459.411 355.182 467.429 367.528 467.429 380.984V432.465L527.747 397.774V346.294C527.747 332.837 520.963 320.615 508.381 313.825L379.85 240C368.502 233.333 353.7 233.333 341.118 240L210.366 313.825C197.784 320.492 191 332.837 191 346.294V495.056C191 508.512 197.784 520.734 210.366 527.524L341.241 601.349C352.589 608.016 367.391 608.016 379.973 601.349L468.786 550.98L529.104 516.29L617.917 465.921C629.265 459.254 644.067 459.254 656.649 465.921L726.095 505.055C737.443 511.722 745.461 524.067 745.461 537.524V616.905C745.461 630.361 738.677 642.583 726.095 649.373L656.649 689.619C645.3 696.286 630.498 696.286 617.917 689.619L548.47 650.484C537.122 643.818 529.104 631.472 529.104 618.016V566.535L468.786 601.226V652.706C468.786 666.163 475.57 678.385 488.152 685.175L619.027 759C630.375 765.667 645.177 765.667 657.759 759L788.634 685.175C799.982 678.508 808 666.163 808 652.706V503.944C808 490.488 801.216 478.266 788.634 471.476L656.402 396.539Z" fill="white"/>
</svg>
