<svg width="1000" height="1000" viewBox="0 0 1000 1000" fill="none" xmlns="http://www.w3.org/2000/svg">
<circle cx="500" cy="500" r="500" fill="white"/>
<path d="M280.1 461.15L274.1 470.3C206.6 573.8 221.75 709.4 310.4 796.25C362.6 847.4 430.85 872.9 499.25 872.9C499.25 872.9 499.25 872.9 280.1 461.15Z" fill="#00A3FF"/>
<path opacity="0.6" d="M499.25 586.25L280.1 461.15C499.25 872.9 499.25 872.9 499.25 872.9C499.25 783.2 499.25 680.45 499.25 586.25Z" fill="#00A3FF"/>
<path opacity="0.6" d="M718.55 461.15L724.55 470.3C792.05 573.8 776.9 709.4 688.25 796.25C636.05 847.4 567.8 872.9 499.4 872.9C499.4 872.9 499.4 872.9 718.55 461.15Z" fill="#00A3FF"/>
<path opacity="0.2" d="M499.4 586.25L718.55 461.15C499.4 872.9 499.4 872.9 499.4 872.9C499.4 783.2 499.4 680.45 499.4 586.25Z" fill="#00A3FF"/>
<path opacity="0.2" d="M499.4 306.65V522.5L688.1 414.65L499.4 306.65Z" fill="#00A3FF"/>
<path opacity="0.6" d="M499.4 306.65L310.55 414.65L499.4 522.5V306.65Z" fill="#00A3FF"/>
<path d="M499.4 125.15L310.55 414.65L499.4 306.35V125.15Z" fill="#00A3FF"/>
<path opacity="0.6" d="M499.4 306.35L688.25 414.65L499.4 125V306.35Z" fill="#00A3FF"/>
</svg>
