<svg width="1000" height="1000" viewBox="0 0 1000 1000" fill="none" xmlns="http://www.w3.org/2000/svg">
<path d="M500 996.6C774.265 996.6 996.6 774.265 996.6 500C996.6 225.735 774.265 3.40002 500 3.40002C225.735 3.40002 3.3999 225.735 3.3999 500C3.3999 774.265 225.735 996.6 500 996.6Z" fill="#2775CA"/>
<path d="M406.8 845.4C406.8 857 397.4 863.6 386.6 860.2C236.2 812 127.6 671.4 127.6 505C127.6 339 236.2 198.2 386.8 150C398 146.6 407 153.2 407 164.8V193.8C407 201.6 401.2 210.4 393.8 213.2C274.6 257 189.8 371.4 189.8 505C189.8 638.8 274.8 753 393.8 796.4C401.2 799.2 407 808 407 815.8V845.4H406.8Z" fill="white"/>
<path d="M531 737.8C531 746.4 524 753.4 515.4 753.4H484.4C475.8 753.4 468.8 746.4 468.8 737.8V689C401 679.6 368 642 359 590C357.4 581 364.4 573.4 373.4 573.4H408.8C416.2 573.4 422.4 578.8 424 585.8C430.6 616.4 448.4 640.2 502.8 640.2C542.8 640.2 571.4 617.6 571.4 584.4C571.4 551 554.8 538.2 495.8 528.6C408.8 517 367.8 490.6 367.8 422.6C367.8 370.2 407.8 329 469 320.6V272.4C469 263.8 476 256.8 484.6 256.8H515.6C524.2 256.8 531.2 263.8 531.2 272.4V321.6C581.2 330.6 613 358.8 623.6 406.2C625.6 415.2 618.6 423.2 609.2 423.2H576.6C569.6 423.2 563.8 418.6 561.8 412C552.8 382.2 531.6 369 494.2 369C453 369 431.8 388.8 431.8 416.8C431.8 446.2 443.8 461 507 470C592.4 481.6 636.6 506 636.6 578.6C636.6 633.6 595.4 678.4 531.4 688.4V738H531V737.8Z" fill="white"/>
<path d="M613.2 860C602 863.4 593 856.8 593 845.2V816.2C593 807.6 598 799.6 606.2 796.8C725 753.4 810.2 638.8 810.2 505.4C810.2 371.6 725.2 257.4 606.2 214C598.8 211.2 593 202.4 593 194.6V165.6C593 154 602.4 147.4 613.2 150.8C763.8 198.2 872.4 339 872.4 505C872.4 671.4 763.8 812 613.2 860Z" fill="white"/>
</svg>
