<svg width="1000" height="1000" viewBox="0 0 1000 1000" fill="none" xmlns="http://www.w3.org/2000/svg">
<g clip-path="url(#clip0_1_87)">
<path fill-rule="evenodd" clip-rule="evenodd" d="M500 0C776 0 1000 223.8 1000 500C1000 776 776 1000 500 1000C223.8 1000 0 776 0 500C0 223.8 223.8 0 500 0Z" fill="white"/>
<path fill-rule="evenodd" clip-rule="evenodd" d="M815.4 209.8L788 237.4C923.8 386 923.8 613.4 788 762L815.4 789.4C966.6 625.4 966.6 373.2 815.4 209.2V209.8Z" fill="#5A5564"/>
<path fill-rule="evenodd" clip-rule="evenodd" d="M237.8 212.2C386.2 76.3999 614 76.3999 762.4 212.2L790 184.8C626.2 33.5999 373.6 33.5999 209.8 184.8L237.8 212.2Z" fill="#5A5564"/>
<path fill-rule="evenodd" clip-rule="evenodd" d="M212.2 762.2C76.5999 613.8 76.5999 386.4 212.2 237.8L184.8 210.4C33.5999 374.2 33.5999 626.8 184.8 790.6L212.2 762.2Z" fill="#5A5564"/>
<path fill-rule="evenodd" clip-rule="evenodd" d="M762.2 787.6C613.8 923.4 386 923.4 237.6 787.6L210 815C373.8 966.2 626.4 966.2 790.2 815L762.2 787.6Z" fill="#5A5564"/>
<path fill-rule="evenodd" clip-rule="evenodd" d="M583.2 430C583.2 485 497.4 478.2 470 478.2V381.4C497.4 381.6 583.2 373 583.2 430ZM605.6 580.2C605.6 640.2 502.8 633.4 470 633.4V527C502.8 527 605.6 517.6 605.6 580.2ZM673.4 408.4C668 351.2 618.6 332 556 326V247H507.8V324.4C495 324.4 482 324.4 469.2 324.8V247H421.2V326.4H390.4H323.2V378.2C323.2 378.2 358.8 377.6 358.4 378.2C371.8 376.8 384 386.2 385.8 399.4V617C385.6 621.6 383.4 625.8 380 628.8C376.6 631.8 372 633.2 367.6 633C368.2 633.4 332.4 633 332.4 633L322.8 690.8H385.8H420.4V771.6H468.8V692H507.4V771.2H555.8V691.4C637.4 686.4 694.4 666.2 701.4 589.8C707.2 528.2 678.2 500.8 632 489.8C660 475.4 677.6 450.2 673.4 408.4Z" fill="#F09242"/>
<path fill-rule="evenodd" clip-rule="evenodd" d="M499.8 39C245.4 39.2 39.4 245.4 39.4 499.8C39.4 754.2 245.6 960.4 500.2 960.4C754.6 960.4 960.8 754.2 961 499.8C960.6 245.4 754.4 39.4 499.8 39.2V39ZM499.8 1000C223.8 1000 0 776 0 500C0 223.8 223.8 0 500 0C776 0 1000 223.8 1000 499.8C999.6 776 776 999.6 499.8 1000Z" fill="#282138"/>
</g>
<defs>
<clipPath id="clip0_1_87">
<rect width="1000" height="1000" fill="white"/>
</clipPath>
</defs>
</svg>
