<svg width="1000" height="1000" viewBox="0 0 1000 1000" fill="none" xmlns="http://www.w3.org/2000/svg">
<g clip-path="url(#clip0_1_11)">
<path d="M1000 0H0V1000H1000V0Z" fill="#00A3FF"/>
<path d="M294.8 464.6L289.2 473.2C226 570 240.2 696.8 323.2 778.2C372 826 436 850 499.8 850C499.8 849.8 499.8 849.8 294.8 464.6Z" fill="white"/>
<path opacity="0.6" d="M499.8 581.6L294.8 464.6C499.8 849.8 499.8 849.8 499.8 849.8C499.8 765.8 499.8 669.8 499.8 581.6Z" fill="white"/>
<path opacity="0.6" d="M705.2 464.6L710.8 473.2C774 570 759.8 696.8 676.8 778.2C628 826 564 850 500.2 850C500.2 849.8 500.2 849.8 705.2 464.6Z" fill="white"/>
<path opacity="0.2" d="M500 581.6L705 464.6C500 849.8 500 849.8 500 849.8C500 765.8 500 669.8 500 581.6Z" fill="white"/>
<path opacity="0.2" d="M500.2 320V522L676.8 421L500.2 320Z" fill="white"/>
<path opacity="0.6" d="M500.2 320L323.4 421L500.2 522V320Z" fill="white"/>
<path d="M500.2 150.2L323.4 421.2L500.2 319.8V150.2Z" fill="white"/>
<path opacity="0.6" d="M500.2 319.8L677 421.2L500.2 150V319.8Z" fill="white"/>
</g>
<defs>
<clipPath id="clip0_1_11">
<rect width="1000" height="1000" rx="500" fill="white"/>
</clipPath>
</defs>
</svg>
