<svg width="1000" height="1000" viewBox="0 0 1000 1000" fill="none" xmlns="http://www.w3.org/2000/svg">
<g clip-path="url(#clip0_1_117)">
<path d="M500 1000C776.142 1000 1000 776.142 1000 500C1000 223.858 776.142 0 500 0C223.858 0 0 223.858 0 500C0 776.142 223.858 1000 500 1000Z" fill="#D3B25B"/>
<path fill-rule="evenodd" clip-rule="evenodd" d="M500.612 535.738C586.6 535.738 658.462 521.2 676.025 501.775C661.112 485.3 607.175 472.325 538.675 468.775V509.813C526.412 510.45 513.662 510.763 500.6 510.763C487.537 510.763 474.787 510.45 462.5 509.813V468.775C394.025 472.325 340.062 485.3 325.15 501.775C342.737 521.2 414.612 535.738 500.6 535.738H500.612ZM653.387 342.575V399.088H538.675V438.275C619.25 442.463 679.712 459.688 680.162 480.3V523.275C679.712 543.888 619.25 561.075 538.675 565.275V661.45H462.512V565.275C381.937 561.088 321.5 543.888 321.05 523.275V480.3C321.5 459.688 381.937 442.463 462.512 438.275V399.088H347.8V342.575H653.4H653.387ZM302.687 252.638H705.387C715.012 252.638 723.875 257.7 728.675 265.925L845.987 467.375C852.062 477.825 850.262 491.013 841.587 499.475L518.662 814.7C508.187 824.913 491.362 824.913 480.912 814.7L158.387 499.9C149.525 491.225 147.85 477.663 154.387 467.163L279.8 265.3C284.687 257.45 293.362 252.65 302.7 252.65L302.687 252.638Z" fill="white"/>
</g>
<defs>
<clipPath id="clip0_1_117">
<rect width="1000" height="1000" fill="white"/>
</clipPath>
</defs>
</svg>
