<svg width="1000" height="1000" viewBox="0 0 1000 1000" fill="none" xmlns="http://www.w3.org/2000/svg">
<path d="M500 1000C776.142 1000 1000 776.142 1000 500C1000 223.858 776.142 0 500 0C223.858 0 0 223.858 0 500C0 776.142 223.858 1000 500 1000Z" fill="#0657F9"/>
<path fill-rule="evenodd" clip-rule="evenodd" d="M291.6 196.8L252 236.8L348 334.4L444 432V523.2V614.4H500H556V523.2V432L652 334.4L748 236.8L708.4 196.4L668.8 156L584.8 241.2C538.8 288 500.4 326.4 500 326.4C499.2 326.4 461.2 288.4 415.2 241.6C369.2 194.8 331.6 156.8 331.2 156.8C330.8 156.8 312.8 174.8 291.2 196.8H291.6ZM250.4 425.2C236.4 450 223.6 493.6 220 528.8C218.4 546 219.2 583.6 221.6 600.8C246 759.2 393.2 867.2 548.4 839.6C650.8 821.6 734.8 748.4 767.2 648.8C778 616 781.6 594 781.6 558C781.6 519.2 777.2 493.6 764.8 458C760.4 445.6 749.6 421.6 748 421.6C747.6 421.6 728 440.8 705.2 464.4C666.4 504 663.2 507.2 664 510.4C664.4 512.4 665.6 517.6 666.4 522.4C669.2 536 670.4 554.8 669.6 570C668.4 586.4 666.4 596.4 661.6 611.6C646 661.2 604.8 703.6 555.2 720.8C536.4 727.2 525.6 728.8 501.2 729.2C476.4 729.2 467.2 728 448 721.6C395.6 704.4 353.2 659.6 338 606.4C333.2 589.2 331.6 578 331.6 557.2C331.6 538 332.4 532.8 337.2 510.4C337.6 508.4 328.4 498.4 295.2 464.8L252.8 421.6L250.4 425.6V425.2Z" fill="white"/>
</svg>
